<?xml version="1.0" standalone="no"?>
<!DOCTYPE svg PUBLIC "-//W3C//DTD SVG 20010904//EN"
 "http://www.w3.org/TR/2001/REC-SVG-20010904/DTD/svg10.dtd">
<svg version="1.0" xmlns="http://www.w3.org/2000/svg"
 width="16.000000pt" height="16.000000pt" viewBox="0 0 16.000000 16.000000"
 preserveAspectRatio="xMidYMid meet">
<metadata>
Created by potrace 1.11, written by Peter Selinger 2001-2013
</metadata>
<g transform="translate(0.000000,16.000000) scale(0.002286,-0.002286)"
fill="#000000" stroke="none">
<path d="M0 3500 l0 -3500 3500 0 3500 0 0 3500 0 3500 -3500 0 -3500 0 0
-3500z m4881 5 c515 -1210 934 -2203 932 -2207 -2 -5 -227 -8 -499 -8 l-494 0
-16 33 c-8 17 -99 239 -203 492 l-187 460 -926 3 -926 2 -26 -62 c-14 -35
-104 -256 -200 -493 l-174 -430 -483 -3 c-265 -1 -486 1 -490 5 -3 5 168 418
381 918 l388 910 1055 3 1054 2 -509 1243 c-280 683 -511 1254 -514 1268 -3
15 -1 36 5 48 l12 21 442 -2 441 -3 937 -2200z m-1601 855 c210 -514 385 -943
387 -952 5 -17 -37 -18 -791 -18 -438 0 -796 3 -796 6 0 6 728 1720 786 1852
13 30 26 53 28 51 2 -2 176 -425 386 -939z"/>
</g>
</svg>
